# xmcd
#
# Track frame offsets: 
#        150
#        20127
#        43207
#        64510
#        86927
#        106447
#        133582
#        153052
#        174132
#        198850
#        219492
#
# Disc length: 3341 seconds
#
# Revision: 5
# Processed by: cddbd v1.5.2PL0 Copyright (c) Steve Scherf et al.
# Submitted via: ExactAudioCopy v0.99pb4
#
DISCID=910d0b0b
DTITLE=Diane Schuur - Friends For Schuur
DYEAR=2000
DGENRE=Jazz
TTITLE0=Easy Living (featuring Stan Getz, digitally reintroduced)
TTITLE1=I'd Fly (featuring Richard Cocciante)
TTITLE2=For The First Time
TTITLE3=It Might Be You (Theme from 'Tootsie' featuring Alan Bergman &
TTITLE3=Dave Grusin)
TTITLE4=Love Like Ours (featuring Dave Grusin)
TTITLE5=Red Cab To Manhattan (featuring Stephen Bishop)
TTITLE6=The Heart Never Learns
TTITLE7=Never Take That Chance Again
TTITLE8=It Had To Be You (featuring Ray Charles)
TTITLE9=I Just Called To Say I Love You (featuring Herbie Hancock)
TTITLE10=Finally (featuring Stevie Wonder)
EXTD=whit - Stan Getz (digitally reintroduced), Richard Cocciante, Dav
EXTD=e Grusin,\nAlan Bergman,Stephan Bishop, Ray Charles, Herbie Hanco
EXTD=ck, Stevie Wonder YEAR: 2000
EXTT0=
EXTT1=
EXTT2=
EXTT3=
EXTT4=
EXTT5=
EXTT6=
EXTT7=
EXTT8=
EXTT9=
EXTT10=
PLAYORDER=
